<?xml version="1.0" standalone="no"?>
<!DOCTYPE svg PUBLIC "-//W3C//DTD SVG 20010904//EN"
 "http://www.w3.org/TR/2001/REC-SVG-20010904/DTD/svg10.dtd">
<svg version="1.0" xmlns="http://www.w3.org/2000/svg"
 width="512.000000pt" height="512.000000pt" viewBox="0 0 512.000000 512.000000"
 preserveAspectRatio="xMidYMid meet">
<metadata>
Created by potrace 1.11, written by Peter Selinger 2001-2013
</metadata>
<g transform="translate(0.000000,512.000000) scale(0.100000,-0.100000)"
fill="#000000" stroke="none">
<path d="M770 4581 c-121 -37 -192 -114 -246 -266 l-29 -80 -3 -1705 c-2
-1177 1 -1727 8 -1775 23 -147 104 -257 228 -307 l57 -23 1775 0 1775 0 57 23
c127 51 208 164 229 318 6 53 9 645 7 1779 l-3 1700 -33 86 c-45 115 -91 174
-172 218 l-65 36 -1043 3 -1042 2 2 -737 3 -738 1153 -3 1152 -2 0 -135 0
-135 -1290 0 -1290 0 0 875 0 875 -285 0 -285 0 0 -875 0 -875 -445 0 -445 0
0 135 0 135 308 2 307 3 3 738 2 737 -182 -1 c-101 0 -194 -4 -208 -8z m660
-3166 l0 -855 -135 0 -135 0 -2 718 -3 717 -307 3 -308 2 0 135 0 135 445 0
445 0 0 -855z m3150 720 l0 -135 -1152 -2 -1153 -3 -3 -717 -2 -718 -135 0
-135 0 0 855 0 855 1290 0 1290 0 0 -135z"/>
</g>
</svg>
